HIERARCHY
ROOT ROOT
{
	OFFSET 0.000000 56.020000 -5.659234
	CHANNELS 6 Xposition Yposition Zposition Xrotation Yrotation Zrotation 
	JOINT C_spine0001_bind_JNT
	{
		OFFSET 0.000000 1.618999 0.000000
		CHANNELS 3 Xrotation Yrotation Zrotation
		JOINT C_spine0002_bind_JNT
		{
			OFFSET 0.000000 4.942001 0.000001
			CHANNELS 3 Xrotation Yrotation Zrotation
			JOINT C_spine0003_bind_JNT
			{
				OFFSET 0.000000 4.942001 -0.000000
				CHANNELS 3 Xrotation Yrotation Zrotation
				JOINT C_neck0001_bind_JNT
				{
					OFFSET 0.000000 17.026009 -0.000000
					CHANNELS 3 Xrotation Yrotation Zrotation
					JOINT C_neck0002_bind_JNT
					{
						OFFSET 0.000000 3.249985 0.000000
						CHANNELS 3 Xrotation Yrotation Zrotation
						JOINT C_head_bind_JNT
						{
							OFFSET 0.000000 5.278008 0.000000
							CHANNELS 3 Xrotation Yrotation Zrotation
							End Site
							{
								OFFSET 0.000000 0.000000 0.000000
							}
						}
					}
				}
				JOINT L_clavicle_bind_JNT
				{
					OFFSET 4.590000 12.067001 0.834000
					CHANNELS 3 Xrotation Yrotation Zrotation
					JOINT L_armUpper0001_bind_JNT
					{
						OFFSET 7.812635 0.512001 -3.452945
						CHANNELS 3 Xrotation Yrotation Zrotation
						JOINT L_armLower0001_bind_JNT
						{
							OFFSET 15.265892 -6.552116 -0.058157
							CHANNELS 3 Xrotation Yrotation Zrotation
							JOINT L_hand0001_bind_JNT
							{
								OFFSET 14.747667 -6.369995 5.049225
								CHANNELS 3 Xrotation Yrotation Zrotation
								End Site
								{
									OFFSET 0.000000 0.000000 0.000000
								}
							}
						}
					}
				}
				JOINT R_clavicle_bind_JNT
				{
					OFFSET -4.590000 12.067001 0.834000
					CHANNELS 3 Xrotation Yrotation Zrotation
					JOINT R_armUpper0001_bind_JNT
					{
						OFFSET -7.812635 0.512001 -3.452945
						CHANNELS 3 Xrotation Yrotation Zrotation
						JOINT R_armLower0001_bind_JNT
						{
							OFFSET -15.265890 -6.552124 -0.058160
							CHANNELS 3 Xrotation Yrotation Zrotation
							JOINT R_hand0001_bind_JNT
							{
								OFFSET -14.746784 -6.369629 5.048937
								CHANNELS 3 Xrotation Yrotation Zrotation
								End Site
								{
									OFFSET 0.000000 0.000000 0.000000
								}
							}
						}
					}
				}
			}
		}
	}
	JOINT C_pelvis0001_bind_JNT
	{
		OFFSET -0.000000 0.000000 0.000000
		CHANNELS 3 Xrotation Yrotation Zrotation
		JOINT L_legUpper0001_bind_JNT
		{
			OFFSET 6.599999 -6.027000 0.539000
			CHANNELS 3 Xrotation Yrotation Zrotation
			JOINT L_legLower0001_bind_JNT
			{
				OFFSET -0.140713 -19.187443 0.040261
				CHANNELS 3 Xrotation Yrotation Zrotation
				JOINT L_foot0001_bind_JNT
				{
					OFFSET -0.132215 -18.028637 -1.138370
					CHANNELS 3 Xrotation Yrotation Zrotation
					JOINT L_foot0002_bind_JNT
					{
						OFFSET 0.007014 -4.693133 9.886524
						CHANNELS 3 Xrotation Yrotation Zrotation
						End Site
						{
							OFFSET 0.000000 0.000000 0.000000
						}
					}
				}
			}
		}
		JOINT R_legUpper0001_bind_JNT
		{
			OFFSET -6.599999 -6.027000 0.539000
			CHANNELS 3 Xrotation Yrotation Zrotation
			JOINT R_legLower0001_bind_JNT
			{
				OFFSET 0.140710 -19.187164 0.040550
				CHANNELS 3 Xrotation Yrotation Zrotation
				JOINT R_foot0001_bind_JNT
				{
					OFFSET 0.132215 -18.028633 -1.138362
					CHANNELS 3 Xrotation Yrotation Zrotation
					JOINT R_foot0002_bind_JNT
					{
						OFFSET -0.007014 -4.693128 9.886505
						CHANNELS 3 Xrotation Yrotation Zrotation
						End Site
						{
							OFFSET 0.000000 0.000000 0.000000
						}
					}
				}
			}
		}
	}
}
MOTION
Frames: 10
Frame Time: 0.033333
17.624275 48.314358 72.875237 0.065622 11.172035 -0.035975 -12.039480 19.603947 6.078414 -9.177073 1.869677 1.420724 0.869752 1.864469 1.186950 17.178411 -6.715968 0.263985 -0.354168 0.189438 -0.207993 -1.610806 -14.443605 2.358942 -3.989515 2.834270 -1.579832 -3.846234 20.341619 -32.817703 -14.843535 1.623351 -9.634331 7.001379 -10.516763 -18.526262 -1.307917 -8.776197 0.606592 -15.674071 4.002141 52.731911 12.984469 12.267176 0.134501 16.211338 14.186176 31.711620 -1.795276 15.584915 -0.865201 9.277397 -1.406218 2.958356 14.815722 0.428035 -1.897071 -10.019393 -0.298798 -0.252539 -11.618644 -0.426853 -0.849778 -6.125417 -0.026866 -12.700019 29.059444 -2.691292 2.708636 -2.493473 10.261716 13.847755 -17.133224 1.421166 -4.259640 
18.240770 48.170815 74.182045 0.054583 10.647343 -0.007266 -12.058813 20.035759 5.699217 -9.441501 1.305188 1.948606 0.322276 1.617079 1.630384 16.907236 -6.335598 -0.024621 -0.663150 -0.040878 -0.586100 -2.905512 -12.437586 0.957612 -3.024352 2.530646 0.305502 -3.894841 24.275412 -35.619320 -19.688236 5.262141 -6.945173 4.065200 -12.447495 -15.313423 -0.543803 -10.037147 -1.412322 -12.640933 -5.234426 50.771080 5.732870 2.888930 -5.640959 15.963945 13.819398 25.308783 -1.666541 16.610851 -0.632613 10.704081 -2.420579 3.122895 15.483082 0.595518 -2.252934 -10.649728 -0.829340 -0.537291 -13.224455 0.359554 -0.835909 -5.904398 0.438396 -12.208900 28.795462 -2.124459 2.179684 -2.981317 9.328291 13.154555 -17.076601 1.962651 -3.452765 
18.714468 47.980980 75.360023 0.055194 10.382650 -0.041506 -11.357703 19.928211 5.479246 -9.763632 0.976179 2.112915 -0.254084 1.396039 1.690016 16.539686 -5.595453 0.213793 -0.076050 -0.100486 -0.922623 -4.137922 -11.439028 0.761216 -2.291718 2.516399 2.719013 -2.257415 27.954889 -38.498249 -25.063732 6.365714 -5.217706 -0.501228 -13.826801 -13.741378 -0.269002 -10.318440 -2.872602 -9.965336 -13.164226 48.679905 -5.691420 -4.864554 -10.472715 13.147051 13.984080 19.687534 -1.623220 17.386694 -0.551364 11.472245 -2.943023 3.449332 16.646652 0.741986 -2.168546 -10.480571 -1.024751 -0.939510 -15.574661 0.105310 -0.920360 -4.821498 0.920788 -12.417639 28.746540 -1.667770 2.251871 -3.652973 9.462029 13.243388 -18.062332 1.920081 -3.919712 
18.954922 48.067162 76.171738 0.031232 10.078706 -0.052122 -10.446215 19.892782 5.907753 -9.615787 0.487897 1.778593 -0.306528 1.313060 2.297740 15.297282 -5.064960 -0.036876 -0.268497 0.261149 -0.458647 -4.887453 -9.594371 0.154605 -2.725101 2.457960 4.316446 0.103250 30.439625 -40.979736 -28.835260 5.987474 -5.204882 -6.069123 -15.024695 -12.610207 -0.897136 -9.976645 -4.202604 -9.306849 -18.941284 44.010036 -14.169027 -9.403430 -13.844218 10.587247 15.112825 17.694376 -1.532585 17.731726 -0.119371 12.158087 -3.271448 3.805379 17.332247 1.074206 -2.482340 -10.343830 -1.485900 -2.014297 -17.048721 -0.637750 -0.053021 -4.189880 0.876186 -13.158872 27.529182 -0.913121 1.847198 -3.024060 10.074911 13.269260 -18.930599 2.653085 -3.463294 
18.972881 48.220242 76.976402 0.065278 9.795840 -0.043328 -9.874075 19.971043 5.999722 -9.382364 0.126886 1.849343 -0.640520 0.971143 2.450765 15.176129 -4.217445 -0.117412 -0.397159 0.137689 -0.432669 -5.900412 -8.538818 0.515632 -3.173748 2.744754 5.586795 1.857367 31.539835 -42.187222 -31.647352 4.988269 -7.192251 -9.333755 -16.419060 -10.685988 -1.365042 -8.847730 -4.890891 -9.365988 -22.868452 39.581337 -19.489256 -12.478261 -15.479861 7.885553 13.457945 16.680859 -1.393432 18.522545 0.120175 12.259446 -3.666260 4.215930 17.841440 1.377131 -2.614178 -8.974186 -2.565966 -3.180719 -19.321650 -1.271005 0.884965 -3.596731 1.137022 -12.880439 26.900803 -1.463789 1.411619 -2.665196 11.324289 13.116210 -19.650801 2.351635 -3.648607 
18.969393 48.440056 77.615318 0.060811 8.674340 -0.047246 -8.843575 20.826294 6.393278 -9.397852 -0.402294 1.983702 -0.341145 0.935728 2.442093 14.893665 -3.952288 0.458672 -0.427014 0.259057 -0.735691 -5.998157 -7.547190 1.102095 -3.850284 2.999910 5.679502 2.045962 31.322197 -41.193394 -32.088989 3.268524 -10.931852 -11.526476 -17.058504 -8.931152 -2.375279 -7.825557 -5.097559 -9.287242 -25.221891 34.497231 -22.055450 -14.642304 -15.281644 6.492887 13.153862 15.552324 -1.279798 19.748371 0.524168 12.731491 -4.408265 4.332986 17.674730 1.302828 -2.882191 -7.191822 -2.840322 -3.636604 -21.526005 -1.426231 1.091013 -3.003248 1.148402 -12.799539 26.557096 -1.370005 1.085011 -2.337554 11.131808 12.614669 -20.074100 2.586115 -3.442733 
18.953789 48.566143 78.026733 0.069888 8.028860 -0.033441 -7.697525 21.089087 6.491382 -9.464592 -0.496311 2.003718 0.000724 0.572791 2.594026 14.727901 -3.394439 0.627522 -0.328487 0.245568 -0.725439 -6.072229 -6.796398 1.482113 -5.171740 3.295385 5.315845 0.890640 30.355532 -38.132576 -30.375608 -0.252229 -15.904317 -11.373312 -16.269558 -6.990952 -3.584549 -6.558978 -5.070046 -9.416014 -26.347713 30.561459 -20.744371 -15.066136 -15.520255 5.451277 12.125092 15.372625 -0.873679 20.451910 0.640249 12.351279 -4.414985 4.319129 18.300762 1.228657 -2.856443 -6.357103 -3.925723 -4.925278 -23.140741 -2.059047 3.127147 -3.832316 1.447231 -12.671082 27.658419 -1.577354 1.470812 -3.182759 11.037042 11.788469 -19.367146 2.088053 -3.276618 
18.915615 48.705936 78.272606 0.056797 7.236775 -0.053639 -6.411446 21.478729 7.057336 -9.068155 -0.819268 2.060272 0.478181 0.469732 2.332492 14.669166 -2.966758 1.205356 -0.389099 0.169711 -0.795649 -6.105586 -6.041803 1.881821 -6.290245 3.281621 4.781830 -0.583830 28.330248 -35.198586 -28.863993 -5.278605 -20.979429 -9.690350 -14.954163 -5.457274 -5.152884 -5.533560 -4.239410 -9.545651 -27.032799 25.022425 -15.461503 -13.980988 -13.746226 5.263527 11.246095 16.095966 -0.594582 21.345518 1.107946 12.305442 -4.804810 3.842549 18.232903 0.685365 -2.453843 -5.723681 -3.988615 -4.957559 -24.275068 -1.883912 3.065422 -5.082830 1.331333 -12.223435 28.807045 -1.824900 1.420199 -4.621222 10.541209 10.739584 -17.635742 2.041329 -2.804702 
18.956726 48.734787 78.152130 0.048413 6.472181 -0.025735 -4.525959 21.810358 7.224929 -8.607629 -1.224615 2.180564 1.025190 0.260976 2.215497 14.761702 -2.371285 1.746359 -0.088208 0.110889 -0.895325 -6.878816 -4.791677 2.423954 -7.301138 3.179594 4.284576 -3.055045 25.574326 -31.538933 -28.197561 -10.872692 -25.998106 -6.453590 -12.421985 -7.006382 -6.130877 -4.971374 -3.144947 -10.448915 -25.456888 21.312943 -10.395443 -12.319268 -12.321558 7.076458 11.470022 16.553677 0.315936 22.174904 1.081065 11.398149 -4.957711 3.129939 17.855764 0.270421 -2.007004 -5.059723 -4.326652 -5.043109 -24.676237 -2.401622 4.005803 -8.231830 1.276279 -12.335682 31.444242 -1.290240 1.552250 -5.255455 10.154752 9.725997 -16.378824 2.220362 -2.496831 
18.893915 48.795120 77.932938 0.065095 4.953695 -0.052287 -2.788125 22.626104 7.220508 -7.846658 -1.501676 2.334388 1.708035 -0.102271 2.434732 15.047313 -1.806301 2.208581 -0.338367 0.288048 -0.909200 -7.009295 -4.009947 3.078191 -8.150960 2.919763 4.299274 -5.323836 22.667034 -28.694317 -29.394302 -17.090649 -30.235235 -2.247216 -10.750883 -9.810656 -7.516625 -4.031733 -2.064502 -11.107455 -25.064913 17.360989 -4.743808 -8.793498 -10.783534 8.077480 11.685714 17.971254 1.141628 23.637604 1.183160 10.571974 -5.009305 2.496222 17.334982 -0.428867 -1.528206 -4.839602 -4.645397 -5.241391 -24.220566 -2.475899 4.519901 -10.557332 0.936589 -12.257341 32.582417 -1.007372 1.390134 -6.052565 9.770682 8.660656 -14.316124 1.781739 -1.910799 
